<?xml version="1.0" encoding="utf-8"?>
<!-- Generator: Adobe Illustrator 24.1.3, SVG Export Plug-In . SVG Version: 6.00 Build 0)  -->
<svg version="1.1" id="Warstwa_1" xmlns="http://www.w3.org/2000/svg" xmlns:xlink="http://www.w3.org/1999/xlink" x="0px" y="0px"
	 viewBox="0 0 178.4 39.4" style="enable-background:new 0 0 178.4 39.4;" xml:space="preserve">
<style type="text/css">
	.st0{fill:#9A6CCC;}
	.st1{fill:#7276D8;}
</style>
<path class="st0" d="M13.9,39.4c-2.6,0-5-0.6-7.1-1.8s-3.8-2.9-5-5S0,28.1,0,25.4c0-2.6,0.6-5,1.8-7.1s2.8-3.8,4.8-5
	s4.3-1.8,6.9-1.8c2.2,0,4.3,0.5,6.1,1.4c1.8,1,3.3,2.2,4.4,3.8V1.9c0-0.6,0.2-1.1,0.6-1.4C25,0.1,25.4,0,26,0s1,0.2,1.4,0.5
	C27.8,0.9,28,1.3,28,1.9v23.7c-0.1,2.6-0.7,5-1.9,7c-1.2,2.1-2.9,3.7-5,4.9C18.8,38.7,16.5,39.4,13.9,39.4z M13.9,35.8
	c1.9,0,3.7-0.5,5.2-1.4c1.5-0.9,2.7-2.2,3.6-3.7c0.9-1.6,1.3-3.4,1.3-5.4s-0.4-3.7-1.3-5.3s-2.1-2.8-3.6-3.7
	c-1.5-0.9-3.2-1.4-5.2-1.4c-1.9,0-3.6,0.5-5.2,1.4C7.2,17.2,5.9,18.4,5,20s-1.4,3.4-1.4,5.3c0,2,0.5,3.8,1.4,5.4s2.1,2.8,3.7,3.7
	C10.3,35.4,12,35.8,13.9,35.8z"/>
<path class="st1" d="M39.5,6.5c-0.7,0-1.4-0.3-1.9-0.8s-0.8-1.2-0.8-2s0.3-1.5,0.8-2C38.2,1.2,38.8,1,39.5,1s1.3,0.2,1.9,0.7
	c0.6,0.5,0.8,1.1,0.8,2c0,0.8-0.3,1.4-0.8,2C40.9,6.2,40.3,6.5,39.5,6.5z M39.6,39.1c-0.6,0-1.1-0.2-1.4-0.5
	c-0.4-0.4-0.5-0.8-0.5-1.4V13.6c0-0.6,0.2-1.1,0.5-1.4c0.4-0.4,0.8-0.5,1.4-0.5c0.6,0,1,0.2,1.4,0.5c0.4,0.4,0.5,0.8,0.5,1.4v23.5
	c0,0.6-0.2,1.1-0.5,1.4C40.6,38.9,40.1,39.1,39.6,39.1z"/>
<path class="st0" d="M65.2,39.4c-2.6,0-5-0.6-7-1.8c-2.1-1.2-3.7-2.8-5-4.9c-1.2-2.1-1.8-4.4-1.9-7V1.9c0-0.6,0.2-1.1,0.5-1.4
	C52.2,0.1,52.6,0,53.2,0s1,0.2,1.4,0.5c0.4,0.4,0.5,0.8,0.5,1.4v14.7c1.1-1.6,2.6-2.8,4.4-3.8s3.8-1.4,6.1-1.4
	c2.6,0,4.9,0.6,6.9,1.8s3.6,2.9,4.8,5c1.2,2.1,1.8,4.5,1.8,7.1c0,2.7-0.6,5.1-1.8,7.2c-1.2,2.1-2.9,3.8-5,5
	C70.2,38.7,67.9,39.4,65.2,39.4z M65.2,35.8c1.9,0,3.7-0.5,5.2-1.4s2.7-2.2,3.6-3.7c0.9-1.6,1.3-3.4,1.3-5.4S74.9,21.6,74,20
	s-2.1-2.8-3.6-3.7c-1.5-0.9-3.3-1.4-5.2-1.4c-1.9,0-3.6,0.5-5.2,1.4c-1.5,0.9-2.7,2.1-3.6,3.7c-0.9,1.6-1.3,3.4-1.3,5.3
	c0,2,0.4,3.8,1.3,5.4c0.9,1.6,2.1,2.8,3.6,3.7C61.6,35.4,63.3,35.8,65.2,35.8z"/>
<path class="st1" d="M99.1,39.4c-2.7,0-5.1-0.6-7.2-1.8s-3.7-2.8-4.9-4.9c-1.2-2.1-1.8-4.5-1.8-7.2s0.6-5.2,1.7-7.2
	c1.1-2.1,2.7-3.7,4.6-4.9s4.2-1.8,6.8-1.8c2.5,0,4.8,0.6,6.6,1.7c1.9,1.2,3.3,2.7,4.4,4.8c1,2,1.6,4.4,1.6,7c0,0.5-0.2,1-0.5,1.3
	s-0.8,0.5-1.3,0.5H87.8v-3.2h21.7l-2.2,1.6c0-1.9-0.3-3.7-1.1-5.2c-0.7-1.5-1.8-2.7-3.1-3.6c-1.4-0.9-3-1.3-4.8-1.3
	c-1.9,0-3.6,0.5-5,1.4c-1.4,0.9-2.5,2.1-3.3,3.7s-1.2,3.4-1.2,5.4s0.4,3.8,1.3,5.4c0.9,1.6,2.1,2.8,3.6,3.7s3.3,1.4,5.3,1.4
	c1.2,0,2.4-0.2,3.6-0.6c1.2-0.4,2.2-0.9,2.9-1.6c0.4-0.3,0.8-0.5,1.3-0.5s0.9,0.1,1.2,0.4c0.4,0.4,0.7,0.8,0.7,1.3s-0.2,0.9-0.6,1.2
	c-1.1,0.9-2.5,1.7-4.2,2.3C102.4,39,100.7,39.4,99.1,39.4z"/>
<path class="st0" d="M129,39.4c-2.6,0-5-0.6-7.1-1.8s-3.8-2.9-5-5s-1.8-4.5-1.8-7.2c0-2.6,0.6-5,1.8-7.1c1.2-2.1,2.8-3.8,4.8-5
	s4.3-1.8,6.9-1.8c2.2,0,4.3,0.5,6.1,1.4c1.8,1,3.3,2.2,4.4,3.8V1.9c0-0.6,0.2-1.1,0.6-1.4c0.4-0.4,0.8-0.5,1.4-0.5
	c0.6,0,1,0.2,1.4,0.5c0.4,0.4,0.6,0.8,0.6,1.4v23.7c-0.1,2.6-0.7,5-1.9,7c-1.2,2.1-2.9,3.7-5,4.9C133.9,38.7,131.6,39.4,129,39.4z
	 M129,35.8c1.9,0,3.7-0.5,5.2-1.4s2.7-2.2,3.6-3.7c0.9-1.6,1.3-3.4,1.3-5.4s-0.4-3.7-1.3-5.3c-0.9-1.6-2.1-2.8-3.6-3.7
	c-1.5-0.9-3.2-1.4-5.2-1.4c-1.9,0-3.6,0.5-5.2,1.4c-1.5,0.9-2.8,2.1-3.7,3.7c-0.9,1.6-1.4,3.4-1.4,5.3c0,2,0.5,3.8,1.4,5.4
	s2.1,2.8,3.7,3.7C125.3,35.4,127.1,35.8,129,35.8z"/>
<path class="st1" d="M164,39.4c-2.6,0-4.9-0.6-6.9-1.8s-3.6-2.9-4.8-5s-1.8-4.5-1.8-7.1c0-2.7,0.6-5.1,1.8-7.2s2.9-3.8,5-5
	s4.5-1.8,7.1-1.8s5,0.6,7.1,1.8s3.7,2.9,5,5s1.8,4.5,1.9,7.2l-1.6,1.2c0,2.4-0.6,4.6-1.7,6.5c-1.1,1.9-2.6,3.4-4.6,4.6
	C168.6,38.8,166.4,39.4,164,39.4z M164.4,35.8c1.9,0,3.7-0.5,5.2-1.4s2.7-2.1,3.6-3.7c0.9-1.6,1.3-3.4,1.3-5.3c0-2-0.4-3.8-1.3-5.4
	c-0.9-1.6-2.1-2.8-3.6-3.7c-1.5-0.9-3.2-1.4-5.2-1.4c-1.9,0-3.6,0.5-5.2,1.4c-1.5,0.9-2.8,2.2-3.7,3.7c-0.9,1.6-1.4,3.4-1.4,5.4
	s0.5,3.7,1.4,5.3s2.1,2.8,3.7,3.7C160.7,35.4,162.5,35.8,164.4,35.8z M176.3,39.1c-0.6,0-1-0.2-1.4-0.5c-0.4-0.4-0.6-0.8-0.6-1.4
	v-8.6l1-4l3,0.8v11.8c0,0.6-0.2,1-0.6,1.4C177.4,38.9,176.9,39.1,176.3,39.1z"/>
</svg>
